<?xml version="1.0" encoding="UTF-8" standalone="no"?>
<svg
   xmlns:dc="http://purl.org/dc/elements/1.1/"
   xmlns:cc="http://creativecommons.org/ns#"
   xmlns:rdf="http://www.w3.org/1999/02/22-rdf-syntax-ns#"
   xmlns:svg="http://www.w3.org/2000/svg"
   xmlns="http://www.w3.org/2000/svg"
   xmlns:sodipodi="http://sodipodi.sourceforge.net/DTD/sodipodi-0.dtd"
   xmlns:inkscape="http://www.inkscape.org/namespaces/inkscape"
   width="790"
   height="250"
   overflow="hidden"
   version="1.1"
   id="svg28"
   sodipodi:docname="heptabot_logo.svg"
   style="overflow:hidden"
   inkscape:version="0.92.4 (5da689c313, 2019-01-14)">
  <metadata
     id="metadata32">
    <rdf:RDF>
      <cc:Work
         rdf:about="">
        <dc:format>image/svg+xml</dc:format>
        <dc:type
           rdf:resource="http://purl.org/dc/dcmitype/StillImage" />
        <dc:title></dc:title>
      </cc:Work>
    </rdf:RDF>
  </metadata>
  <sodipodi:namedview
     pagecolor="#ffffff"
     bordercolor="#666666"
     borderopacity="1"
     objecttolerance="10"
     gridtolerance="10"
     guidetolerance="10"
     inkscape:pageopacity="0"
     inkscape:pageshadow="2"
     inkscape:window-width="1920"
     inkscape:window-height="1001"
     id="namedview30"
     showgrid="false"
     inkscape:zoom="0.71807838"
     inkscape:cx="424.16325"
     inkscape:cy="231.91779"
     inkscape:window-x="-9"
     inkscape:window-y="-9"
     inkscape:window-maximized="1"
     inkscape:current-layer="svg28" />
  <defs
     id="defs14">
    <clipPath
       id="clip0">
      <rect
         x="261"
         y="241"
         width="791"
         height="277"
         id="rect2" />
    </clipPath>
    <clipPath
       id="clip1">
      <rect
         x="305"
         y="266"
         width="140"
         height="188"
         id="rect5" />
    </clipPath>
    <clipPath
       id="clip2">
      <rect
         x="305"
         y="266"
         width="140"
         height="188"
         id="rect8" />
    </clipPath>
    <clipPath
       id="clip3">
      <rect
         x="305"
         y="266"
         width="140"
         height="188"
         id="rect11" />
    </clipPath>
  </defs>
  <rect
     style="fill:#ffffff;fill-opacity:1;stroke:none;stroke-width:0.98808074;stroke-opacity:1"
     id="rect4570"
     width="790"
     height="250"
     x="0"
     y="0"
     inkscape:label="bg" />
  <g
     clip-path="url(#clip0)"
     transform="translate(-265.4241,-235.0003)"
     id="g26">
    <g
       clip-path="url(#clip1)"
       id="g22">
      <g
         clip-path="url(#clip2)"
         id="g20"
         style="display:inline">
        <g
           clip-path="url(#clip3)"
           id="g18"
           style="display:inline">
          <path
             d="M 69.7016,0.00142415 C 69.0858,0.00399364 68.4682,0.0141846 67.8488,0.0327555 29.5347,1.18119 0,34.6065 0,72.9352 v 92.1918 0.183 2.134 c 0,3.158 2.94129,4.736 4.66197,2.505 l 4.25394,-4.103 c 0.25331,-0.245 0.52961,-0.42 0.81604,-0.536 h 1.62995 c 0.4589,0.186 0.8852,0.529 1.2255,1.025 l 7.3315,10.706 c 1.0669,1.384 2.7962,1.384 3.863,0 l 6.9513,-10.152 c 0.5439,-0.794 1.2936,-1.19 2.043,-1.19 0.7991,10e-4 1.6141,0.724 2.1939,1.786 l 7.4134,13.588 c 0.5529,0.9 1.273,1.359 1.9974,1.385 v 0.002 c 0.0039,0 0.0075,-0.001 0.0114,-0.001 0.0038,0 0.0076,0.001 0.0114,0.001 v -0.002 c 0.7244,-0.026 1.4444,-0.485 1.9974,-1.385 l 7.4134,-13.588 c 0.5791,-1.061 1.3774,-1.592 2.1754,-1.593 0.9641,0 1.9487,0.844 2.6482,2.165 l 8.9394,16.887 c 0.6668,1.119 1.5354,1.688 2.409,1.72 v 0.003 c 0.0047,0 0.0088,-0.002 0.0135,-0.002 0.0046,0 0.0089,0.002 0.0135,0.002 v -0.003 c 0.8736,-0.032 1.7423,-0.601 2.409,-1.72 l 8.9394,-16.887 c 0.6982,-1.318 1.6824,-2.161 2.6447,-2.165 0.7991,0 1.5989,0.531 2.1789,1.593 l 7.4134,13.588 c 0.553,0.9 1.273,1.359 1.9974,1.385 v 0.002 c 0.0038,0 0.0076,-0.001 0.0114,-0.001 0.0039,0 0.0075,0.001 0.0114,0.001 v -0.002 c 0.7245,-0.026 1.4445,-0.485 1.9974,-1.385 l 7.4135,-13.588 c 0.58,-1.062 1.395,-1.785 2.194,-1.786 0.749,0 1.499,0.396 2.043,1.19 l 6.951,10.152 c 1.067,1.384 2.796,1.384 3.863,0 l 7.332,-10.706 c 0.34,-0.496 0.766,-0.839 1.225,-1.025 h 1.63 c 0.286,0.116 0.563,0.291 0.816,0.536 l 4.254,4.103 c 1.721,2.231 4.662,0.653 4.662,-2.505 V 165.31 165.128 70 C 140,31.2402 108.498,-0.160453 69.7016,0.00142415 Z M 99.3084,58.1931 c 1.2366,0.0174 2.4826,0.1728 3.4176,0.4614 2.832,0.8747 5.616,3.227 6.958,5.8789 1.906,3.7662 1.702,8.352 -0.522,11.7863 -2.796,4.3179 -7.706,6.3656 -12.6735,5.2864 -4.2316,-0.9193 -7.9188,-4.5926 -8.9344,-8.9009 -1.4535,-6.1665 2.2033,-12.3269 8.3968,-14.1461 0.8949,-0.2629 2.1211,-0.3835 3.3575,-0.366 z M 41.1687,58.198 c 2.4452,-0.0025 3.9158,0.347 5.886,1.3971 6.9368,3.6973 8.3122,13.2126 2.7109,18.7512 -3.0286,2.9946 -7.1436,4.2032 -11.0699,3.2513 -2.1404,-0.5189 -4.0675,-1.6336 -5.718,-3.3069 -2.4353,-2.4689 -3.4607,-4.9394 -3.4607,-8.3391 0,-6.5087 5.1925,-11.7469 11.6517,-11.7536 z m -9.3446,50.522 h 9.5753 9.5753 v 4.615 4.614 h -9.5753 -9.5753 v -4.614 z m 28.8413,0 h 9.5753 9.5753 v 4.615 4.614 h -9.5753 -9.5753 v -4.614 z m 28.8412,0 h 9.5746 9.5758 v 4.615 4.614 h -9.5758 -9.5746 v -4.614 z"
             transform="matrix(1,0,0,1.00714,305,266)"
             id="path16"
             inkscape:connector-curvature="0"
             style="display:inline;fill:#61186d" />
        </g>
      </g>
    </g>
    <g
       aria-label="heptabot"
       transform="translate(468.294,404)"
       style="font-weight:400;font-size:123px;font-family:Kanit, Kanit_MSFontService, sans-serif"
       id="text24">
      <path
         d="M 67.205566,0 H 55.914551 v -38.197266 q 0,-4.624511 -0.540528,-8.648437 -0.540527,-4.083984 -1.981933,-6.366211 -1.501465,-2.522461 -4.324219,-3.723633 -2.822754,-1.26123 -7.327148,-1.26123 -4.624512,0 -9.669434,2.282226 -5.044922,2.282227 -9.669434,5.825684 V 0 H 11.11084 v -93.451172 h 11.291015 v 33.812988 q 5.285157,-4.384277 10.930665,-6.846679 5.645507,-2.462403 11.591308,-2.462403 10.870606,0 16.576172,6.546387 5.705566,6.546387 5.705566,18.858399 z"
         style="font-weight:400;font-size:123px;font-family:Kanit, Kanit_MSFontService, sans-serif"
         id="path5265"
         inkscape:connector-curvature="0" />
      <path
         d="M 145.10156,-32.371582 H 95.67334 q 0,6.186035 1.861816,10.810547 1.861817,4.564453 5.104984,7.507324 3.12304,2.882813 7.3872,4.3242188 4.32422,1.4414063 9.48926,1.4414063 6.84668,0 13.75342,-2.7026371 6.9668,-2.762695 9.90967,-5.405273 h 0.60058 v 12.3120116 q -5.70556,2.4023438 -11.65136,4.02392581 -5.9458,1.62158199 -12.49219,1.62158199 -16.69629,0 -26.065431,-9.008789 -9.369141,-9.0688474 -9.369141,-25.7050784 0,-16.456054 8.948731,-26.125488 9.008791,-9.669434 23.663081,-9.669434 13.57325,0 20.9004,7.927735 7.3872,7.927734 7.3872,22.521972 z m -10.99072,-8.648438 q -0.0601,-8.888671 -4.50439,-13.753417 -4.38428,-4.864747 -13.39307,-4.864747 -9.06885,0 -14.47412,5.345215 -5.345217,5.345215 -6.06592,13.272949 z"
         style="font-weight:400;font-size:123px;font-family:Kanit, Kanit_MSFontService, sans-serif"
         id="path5267"
         inkscape:connector-curvature="0" />
      <path
         d="m 221.25586,-34.353516 q 0,8.167969 -2.34229,14.95459 -2.34228,6.726563 -6.60644,11.411133 -3.96387,4.444336 -9.36914,6.9067383 -5.34522,2.4023438 -11.35108,2.4023438 -5.22509,0 -9.48925,-1.14111332 -4.20411,-1.14111328 -8.58838,-3.54345708 V 24.744141 h -11.29102 v -91.82959 h 11.29102 v 7.026855 q 4.50439,-3.783691 10.08984,-6.306152 5.64551,-2.58252 12.01172,-2.58252 12.13184,0 18.8584,9.188965 6.78662,9.128906 6.78662,25.404785 z m -11.65137,0.300293 q 0,-12.131836 -4.14404,-18.137695 -4.14404,-6.005859 -12.73242,-6.005859 -4.86475,0 -9.78955,2.10205 -4.92481,2.102051 -9.4292,5.525391 v 38.01709 q 4.80468,2.162109 8.22802,2.942871 3.4834,0.7807617 7.86768,0.7807617 9.4292,0 14.71436,-6.3662107 5.28515,-6.366211 5.28515,-18.858399 z"
         style="font-weight:400;font-size:123px;font-family:Kanit, Kanit_MSFontService, sans-serif"
         id="path5269"
         inkscape:connector-curvature="0" />
      <path
         d="m 273.68701,-0.60058594 q -3.1831,0.84082032 -6.9668,1.38134766 -3.72363,0.54052738 -6.6665,0.54052738 -10.27002,0 -15.61523,-5.5253907 -5.34522,-5.5253906 -5.34522,-17.7172854 v -35.674804 h -7.62744 v -9.489258 h 7.62744 v -19.278809 h 11.29102 v 19.278809 h 23.30273 v 9.489258 h -23.30273 v 30.569824 q 0,5.285156 0.24023,8.288086 0.24024,2.942871 1.68164,5.52539 1.32129,2.402344 3.60352,3.5434574 2.34228,1.0810547 7.08691,1.0810547 2.7627,0 5.76563,-0.7807617 3.00293,-0.8408204 4.32422,-1.3813474 h 0.60058 z"
         style="font-weight:400;font-size:123px;font-family:Kanit, Kanit_MSFontService, sans-serif"
         id="path5271"
         inkscape:connector-curvature="0" />
      <path
         d="m 339.51123,0 h -11.23096 v -7.1469727 q -1.50146,1.0209961 -4.08398,2.8828125 -2.52246,1.8017579 -4.92481,2.8828125 Q 316.44873,0 312.78516,0.90087891 q -3.66358,0.96093749 -8.58838,0.96093749 -9.06885,0 -15.375,-6.0058594 -6.30616,-6.005859 -6.30616,-15.314941 0,-7.627442 3.24317,-12.312012 3.30322,-4.744629 9.36914,-7.447266 6.12598,-2.702636 14.71436,-3.663574 8.58837,-0.960937 18.43798,-1.441406 v -1.741699 q 0,-3.84375 -1.38134,-6.366211 -1.32129,-2.522461 -3.84375,-3.963868 -2.40235,-1.381347 -5.76563,-1.861816 -3.36328,-0.480469 -7.02685,-0.480469 -4.44434,0 -9.90967,1.201172 -5.46533,1.141113 -11.29102,3.363281 h -0.60058 v -11.471191 q 3.30322,-0.900879 9.54931,-1.981934 6.2461,-1.081054 12.31201,-1.081054 7.08692,0 12.31202,1.201172 5.28515,1.141113 9.1289,3.963867 3.78369,2.762695 5.76563,7.146972 1.98193,4.384278 1.98193,10.870606 z m -11.23096,-16.516113 v -18.678223 q -5.16504,0.300293 -12.19189,0.900879 -6.9668,0.600586 -11.05078,1.741699 -4.86475,1.381348 -7.86768,4.324219 -3.00293,2.882812 -3.00293,7.987793 0,5.765625 3.4834,8.708496 3.4834,2.8828125 10.63037,2.8828125 5.9458,0 10.87061,-2.2822265 4.9248,-2.342285 9.1289,-5.585449 z"
         style="font-weight:400;font-size:123px;font-family:Kanit, Kanit_MSFontService, sans-serif"
         id="path5273"
         inkscape:connector-curvature="0" />
      <path
         d="m 420.41016,-34.053223 q 0,8.408203 -2.40235,15.134766 -2.34228,6.726562 -6.36621,11.2910156 -4.26416,4.7446289 -9.36914,7.14697265 -5.10498,2.34228515 -11.23096,2.34228515 -5.70556,0 -9.96972,-1.38134765 -4.26416,-1.32128906 -8.40821,-3.60351565 L 371.94287,0 h -10.57031 v -93.451172 h 11.29101 v 33.392578 q 4.74463,-3.903808 10.08985,-6.366211 5.34521,-2.522461 12.01172,-2.522461 11.8916,0 18.73828,9.128907 6.90674,9.128906 6.90674,25.765136 z m -11.65137,0.300293 q 0,-12.011718 -3.96387,-18.197754 -3.96387,-6.246093 -12.79248,-6.246093 -4.9248,0 -9.96973,2.162109 -5.04492,2.102051 -9.36914,5.465332 v 38.4375 q 4.80469,2.1621094 8.22803,3.0029297 3.4834,0.8408204 7.86768,0.8408204 9.36914,0 14.65429,-6.1259771 5.34522,-6.186035 5.34522,-19.338867 z"
         style="font-weight:400;font-size:123px;font-family:Kanit, Kanit_MSFontService, sans-serif"
         id="path5275"
         inkscape:connector-curvature="0" />
      <path
         d="m 495.18311,-33.512695 q 0,16.395996 -8.40821,25.8852536 -8.4082,9.4892578 -22.52197,9.4892578 -14.23389,0 -22.64209,-9.4892578 -8.34814,-9.4892576 -8.34814,-25.8852536 0,-16.395996 8.34814,-25.885254 8.4082,-9.549317 22.64209,-9.549317 14.11377,0 22.52197,9.549317 8.40821,9.489258 8.40821,25.885254 z m -11.65137,0 q 0,-13.032715 -5.10498,-19.338867 -5.10498,-6.366211 -14.17383,-6.366211 -9.18897,0 -14.29395,6.366211 -5.04492,6.306152 -5.04492,19.338867 0,12.612304 5.10498,19.158691 5.10498,6.4863282 14.23389,6.4863282 9.00879,0 14.11377,-6.4262692 5.16504,-6.486328 5.16504,-19.21875 z"
         style="font-weight:400;font-size:123px;font-family:Kanit, Kanit_MSFontService, sans-serif"
         id="path5277"
         inkscape:connector-curvature="0" />
      <path
         d="m 547.5542,-0.60058594 q -3.18311,0.84082032 -6.9668,1.38134766 -3.72363,0.54052738 -6.6665,0.54052738 -10.27002,0 -15.61524,-5.5253907 -5.34521,-5.5253906 -5.34521,-17.7172854 v -35.674804 h -7.62744 v -9.489258 h 7.62744 v -19.278809 h 11.29101 v 19.278809 h 23.30274 v 9.489258 h -23.30274 v 30.569824 q 0,5.285156 0.24024,8.288086 0.24023,2.942871 1.68164,5.52539 1.32129,2.402344 3.60352,3.5434574 2.34228,1.0810547 7.08691,1.0810547 2.76269,0 5.76562,-0.7807617 3.00293,-0.8408204 4.32422,-1.3813474 h 0.60059 z"
         style="font-weight:400;font-size:123px;font-family:Kanit, Kanit_MSFontService, sans-serif"
         id="path5279"
         inkscape:connector-curvature="0" />
    </g>
  </g>
</svg>
