<?xml version="1.0" encoding="UTF-8" standalone="no"?>
<svg
   xmlns:dc="http://purl.org/dc/elements/1.1/"
   xmlns:cc="http://creativecommons.org/ns#"
   xmlns:rdf="http://www.w3.org/1999/02/22-rdf-syntax-ns#"
   xmlns:svg="http://www.w3.org/2000/svg"
   xmlns="http://www.w3.org/2000/svg"
   xmlns:sodipodi="http://sodipodi.sourceforge.net/DTD/sodipodi-0.dtd"
   xmlns:inkscape="http://www.inkscape.org/namespaces/inkscape"
   width="790"
   height="250"
   overflow="hidden"
   version="1.1"
   id="svg28"
   sodipodi:docname="heptabot_logo.svg"
   style="overflow:hidden"
   inkscape:version="0.92.4 (5da689c313, 2019-01-14)">
  <metadata
     id="metadata32">
    <rdf:RDF>
      <cc:Work
         rdf:about="">
        <dc:format>image/svg+xml</dc:format>
        <dc:type
           rdf:resource="http://purl.org/dc/dcmitype/StillImage" />
        <dc:title></dc:title>
      </cc:Work>
    </rdf:RDF>
  </metadata>
  <sodipodi:namedview
     pagecolor="#ffffff"
     bordercolor="#666666"
     borderopacity="1"
     objecttolerance="10"
     gridtolerance="10"
     guidetolerance="10"
     inkscape:pageopacity="0"
     inkscape:pageshadow="2"
     inkscape:window-width="1920"
     inkscape:window-height="1001"
     id="namedview30"
     showgrid="false"
     inkscape:zoom="1.0684077"
     inkscape:cx="466.7999"
     inkscape:cy="169.90809"
     inkscape:window-x="-9"
     inkscape:window-y="-9"
     inkscape:window-maximized="1"
     inkscape:current-layer="svg28" />
  <defs
     id="defs14">
    <clipPath
       id="clip0">
      <rect
         x="261"
         y="241"
         width="791"
         height="277"
         id="rect2" />
    </clipPath>
    <clipPath
       id="clip1">
      <rect
         x="305"
         y="266"
         width="140"
         height="188"
         id="rect5" />
    </clipPath>
    <clipPath
       id="clip2">
      <rect
         x="305"
         y="266"
         width="140"
         height="188"
         id="rect8" />
    </clipPath>
    <clipPath
       id="clip3">
      <rect
         x="305"
         y="266"
         width="140"
         height="188"
         id="rect11" />
    </clipPath>
  </defs>
  <rect
     style="fill:#ffffff;fill-opacity:1;stroke:none;stroke-width:0.98808074;stroke-opacity:1"
     id="rect4570"
     width="790"
     height="250"
     x="0"
     y="0"
     inkscape:label="bg" />
  <g
     id="g888"
     transform="translate(10.289155,-4.5835596e-6)">
    <g
       id="text862"
       style="font-style:normal;font-variant:normal;font-weight:normal;font-stretch:normal;font-size:128.27279663px;line-height:1.25;font-family:'AA BebasNeue';-inkscape-font-specification:'AA BebasNeue';letter-spacing:0px;word-spacing:0px;display:inline;fill:#000000;fill-opacity:1;stroke:none;stroke-width:3.20681977"
       aria-label="heptabot">
      <path
         inkscape:connector-curvature="0"
         id="path858"
         style="font-style:normal;font-variant:normal;font-weight:normal;font-stretch:normal;font-family:Kanit;-inkscape-font-specification:Kanit;fill:#000000;stroke-width:3.20681977"
         d="M 212.6679,169.35612 V 82.90026 h 13.98174 v 31.55511 q 3.97645,-3.20682 9.49218,-5.13091 5.51573,-2.05237 12.44246,-2.05237 11.54456,0 17.06029,5.51573 5.51573,5.51573 5.51573,17.18856 v 39.37974 h -13.85346 v -38.73838 q 0,-7.055 -3.07855,-9.87701 -2.95028,-2.822 -10.3901,-2.822 -4.61782,0 -9.36391,2.05237 -4.7461,1.92409 -7.82464,5.13091 v 44.25411 z" />
      <path
         inkscape:connector-curvature="0"
         id="path860"
         style="font-style:normal;font-variant:normal;font-weight:normal;font-stretch:normal;font-family:Kanit;-inkscape-font-specification:Kanit;fill:#000000;stroke-width:3.20681977"
         d="m 316.35842,170.63885 q -15.90583,0 -24.62838,-7.82464 -8.72255,-7.82464 -8.72255,-23.98701 0,-14.6231 7.43982,-23.0891 7.43982,-8.46601 22.57601,-8.46601 13.85347,0 20.7802,7.31155 7.055,7.18328 7.055,18.59956 v 11.288 h -44.51066 q 1.02618,8.85083 6.41364,12.18592 5.38746,3.33509 16.41892,3.33509 4.61782,0 9.49219,-0.89791 4.87436,-0.89791 8.466,-2.30891 v 10.26182 q -4.10473,1.79582 -9.49219,2.69373 -5.25918,0.89791 -11.288,0.89791 z m -20.01056,-35.27502 h 32.19647 v -4.233 q 0,-6.28537 -3.46336,-9.74873 -3.46337,-3.59164 -11.67283,-3.59164 -9.74873,0 -13.46864,4.233 -3.59164,4.23301 -3.59164,13.34037 z" />
      <path
         inkscape:connector-curvature="0"
         id="path862"
         style="font-style:normal;font-variant:normal;font-weight:normal;font-stretch:normal;font-family:Kanit;-inkscape-font-specification:Kanit;fill:#000000;stroke-width:3.20681977"
         d="m 354.46948,197.06305 v -88.50823 h 12.05764 l 0.76964,6.02882 q 4.10473,-3.71991 8.97909,-5.51573 4.87437,-1.79582 11.54455,-1.79582 13.08383,0 20.39538,7.18328 7.31155,7.055 7.31155,23.47392 0,16.41892 -7.5681,24.62838 -7.56809,8.08118 -20.65192,8.08118 -11.03146,0 -18.8561,-5.13091 v 31.55511 z m 29.24619,-36.94257 q 17.70165,0 17.70165,-22.31946 0,-10.77492 -3.97646,-15.26447 -3.97645,-4.61782 -13.34037,-4.61782 -9.36391,0 -15.64928,6.41364 v 30.40066 q 2.95028,2.43718 6.54191,3.97645 3.71992,1.411 8.72255,1.411 z" />
      <path
         inkscape:connector-curvature="0"
         id="path864"
         style="font-style:normal;font-variant:normal;font-weight:normal;font-stretch:normal;font-family:Kanit;-inkscape-font-specification:Kanit;fill:#000000;stroke-width:3.20681977"
         d="m 452.34562,170.63885 q -9.74873,0 -14.6231,-5.13091 -4.74609,-5.25918 -4.74609,-14.23828 v -31.81165 h -8.9791 v -10.90319 h 8.9791 V 94.573084 l 13.85346,-4.233002 v 18.214738 h 16.16237 l -0.89791,10.90319 h -15.26446 v 31.04201 q 0,5.25919 2.43718,7.43983 2.43719,2.05236 7.95292,2.05236 3.46336,0 7.31155,-1.28273 v 9.87701 q -5.00264,2.05236 -12.18592,2.05236 z" />
      <path
         inkscape:connector-curvature="0"
         id="path866"
         style="font-style:normal;font-variant:normal;font-weight:normal;font-stretch:normal;font-family:Kanit;-inkscape-font-specification:Kanit;fill:#000000;stroke-width:3.20681977"
         d="m 494.21066,170.63885 q -5.77228,0 -10.77492,-2.05236 -4.87437,-2.05237 -7.82464,-6.1571 -2.95027,-4.233 -2.95027,-10.39009 0,-8.72255 5.90054,-13.98174 6.02883,-5.38745 18.47129,-5.38745 h 19.49746 v -2.69373 q 0,-4.36128 -1.411,-6.92673 -1.28273,-2.56546 -4.87436,-3.71992 -3.46337,-1.15445 -10.26183,-1.15445 -10.77491,0 -20.13883,3.20682 V 110.992 q 4.10473,-1.66754 10.00528,-2.69373 5.90055,-1.02618 12.69901,-1.02618 13.34037,0 20.2671,5.38746 7.055,5.38746 7.055,17.57337 v 39.1232 h -11.92937 l -0.89791,-6.15709 q -3.71991,3.59164 -9.23564,5.51573 -5.38746,1.92409 -13.59691,1.92409 z m 3.71991,-10.00528 q 6.28536,0 10.90318,-2.05236 4.7461,-2.18064 7.69637,-5.77228 V 142.16229 H 497.2892 q -6.15709,0 -8.97909,2.43719 -2.69373,2.30891 -2.69373,7.18327 0,4.7461 3.20682,6.79846 3.20682,2.05236 9.10737,2.05236 z" />
      <path
         inkscape:connector-curvature="0"
         id="path868"
         style="font-style:normal;font-variant:normal;font-weight:normal;font-stretch:normal;font-family:Kanit;-inkscape-font-specification:Kanit;fill:#000000;stroke-width:3.20681977"
         d="m 578.72641,170.63885 q -6.67019,0 -11.54455,-1.79582 -4.87437,-1.79582 -8.9791,-5.51573 l -0.76963,6.02882 H 545.37548 V 82.90026 h 13.98174 v 29.63102 q 7.95291,-5.25919 19.11264,-5.25919 12.95556,0 20.39538,7.43982 7.56809,7.31155 7.56809,23.73047 0,16.54719 -7.43982,24.37183 -7.43982,7.82464 -20.2671,7.82464 z m -3.71991,-10.51837 q 9.49219,0 13.34037,-5.38745 3.97646,-5.38746 3.97646,-16.29065 0,-11.28801 -4.23301,-15.90583 -4.233,-4.61782 -13.34037,-4.61782 -9.49218,0 -15.39273,5.25919 v 30.52892 q 6.02882,6.41364 15.64928,6.41364 z" />
      <path
         inkscape:connector-curvature="0"
         id="path870"
         style="font-style:normal;font-variant:normal;font-weight:normal;font-stretch:normal;font-family:Kanit;-inkscape-font-specification:Kanit;fill:#000000;stroke-width:3.20681977"
         d="m 649.15216,170.63885 q -16.41892,0 -24.11529,-8.20946 -7.56809,-8.20946 -7.56809,-23.47392 0,-15.26446 7.69637,-23.47392 7.69636,-8.20946 23.98701,-8.20946 16.41892,0 24.11529,8.20946 7.69636,8.20946 7.69636,23.47392 0,15.26446 -7.69636,23.47392 -7.5681,8.20946 -24.11529,8.20946 z m 0,-11.80109 q 9.62046,0 13.59692,-4.61783 4.10473,-4.74609 4.10473,-15.26446 0,-10.51837 -4.10473,-15.13619 -3.97646,-4.61782 -13.59692,-4.61782 -9.49219,0 -13.59692,4.61782 -3.97645,4.61782 -3.97645,15.13619 0,10.51837 3.97645,15.26446 4.10473,4.61783 13.59692,4.61783 z" />
      <path
         inkscape:connector-curvature="0"
         id="path872"
         style="font-style:normal;font-variant:normal;font-weight:normal;font-stretch:normal;font-family:Kanit;-inkscape-font-specification:Kanit;fill:#000000;stroke-width:3.20681977"
         d="m 717.65988,170.63885 q -9.74874,0 -14.6231,-5.13091 -4.7461,-5.25918 -4.7461,-14.23828 v -31.81165 h -8.97909 v -10.90319 h 8.97909 V 94.573084 l 13.85346,-4.233002 v 18.214738 h 16.16238 l -0.89791,10.90319 h -15.26447 v 31.04201 q 0,5.25919 2.43719,7.43983 2.43718,2.05236 7.95291,2.05236 3.46337,0 7.31155,-1.28273 v 9.87701 q -5.00264,2.05236 -12.18591,2.05236 z" />
    </g>
    <g
       transform="translate(-265.4241,-235.0003)"
       clip-path="url(#clip1)"
       id="g22">
      <g
         clip-path="url(#clip2)"
         id="g20"
         style="display:inline">
        <g
           clip-path="url(#clip3)"
           id="g18"
           style="display:inline">
          <path
             d="M 69.7016,0.00142415 C 69.0858,0.00399364 68.4682,0.0141846 67.8488,0.0327555 29.5347,1.18119 0,34.6065 0,72.9352 v 92.1918 0.183 2.134 c 0,3.158 2.94129,4.736 4.66197,2.505 l 4.25394,-4.103 c 0.25331,-0.245 0.52961,-0.42 0.81604,-0.536 h 1.62995 c 0.4589,0.186 0.8852,0.529 1.2255,1.025 l 7.3315,10.706 c 1.0669,1.384 2.7962,1.384 3.863,0 l 6.9513,-10.152 c 0.5439,-0.794 1.2936,-1.19 2.043,-1.19 0.7991,10e-4 1.6141,0.724 2.1939,1.786 l 7.4134,13.588 c 0.5529,0.9 1.273,1.359 1.9974,1.385 v 0.002 c 0.0039,0 0.0075,-0.001 0.0114,-0.001 0.0038,0 0.0076,0.001 0.0114,0.001 v -0.002 c 0.7244,-0.026 1.4444,-0.485 1.9974,-1.385 l 7.4134,-13.588 c 0.5791,-1.061 1.3774,-1.592 2.1754,-1.593 0.9641,0 1.9487,0.844 2.6482,2.165 l 8.9394,16.887 c 0.6668,1.119 1.5354,1.688 2.409,1.72 v 0.003 c 0.0047,0 0.0088,-0.002 0.0135,-0.002 0.0046,0 0.0089,0.002 0.0135,0.002 v -0.003 c 0.8736,-0.032 1.7423,-0.601 2.409,-1.72 l 8.9394,-16.887 c 0.6982,-1.318 1.6824,-2.161 2.6447,-2.165 0.7991,0 1.5989,0.531 2.1789,1.593 l 7.4134,13.588 c 0.553,0.9 1.273,1.359 1.9974,1.385 v 0.002 c 0.0038,0 0.0076,-0.001 0.0114,-0.001 0.0039,0 0.0075,0.001 0.0114,0.001 v -0.002 c 0.7245,-0.026 1.4445,-0.485 1.9974,-1.385 l 7.4135,-13.588 c 0.58,-1.062 1.395,-1.785 2.194,-1.786 0.749,0 1.499,0.396 2.043,1.19 l 6.951,10.152 c 1.067,1.384 2.796,1.384 3.863,0 l 7.332,-10.706 c 0.34,-0.496 0.766,-0.839 1.225,-1.025 h 1.63 c 0.286,0.116 0.563,0.291 0.816,0.536 l 4.254,4.103 c 1.721,2.231 4.662,0.653 4.662,-2.505 V 165.31 165.128 70 C 140,31.2402 108.498,-0.160453 69.7016,0.00142415 Z M 99.3084,58.1931 c 1.2366,0.0174 2.4826,0.1728 3.4176,0.4614 2.832,0.8747 5.616,3.227 6.958,5.8789 1.906,3.7662 1.702,8.352 -0.522,11.7863 -2.796,4.3179 -7.706,6.3656 -12.6735,5.2864 -4.2316,-0.9193 -7.9188,-4.5926 -8.9344,-8.9009 -1.4535,-6.1665 2.2033,-12.3269 8.3968,-14.1461 0.8949,-0.2629 2.1211,-0.3835 3.3575,-0.366 z M 41.1687,58.198 c 2.4452,-0.0025 3.9158,0.347 5.886,1.3971 6.9368,3.6973 8.3122,13.2126 2.7109,18.7512 -3.0286,2.9946 -7.1436,4.2032 -11.0699,3.2513 -2.1404,-0.5189 -4.0675,-1.6336 -5.718,-3.3069 -2.4353,-2.4689 -3.4607,-4.9394 -3.4607,-8.3391 0,-6.5087 5.1925,-11.7469 11.6517,-11.7536 z m -9.3446,50.522 h 9.5753 9.5753 v 4.615 4.614 h -9.5753 -9.5753 v -4.614 z m 28.8413,0 h 9.5753 9.5753 v 4.615 4.614 h -9.5753 -9.5753 v -4.614 z m 28.8412,0 h 9.5746 9.5758 v 4.615 4.614 h -9.5758 -9.5746 v -4.614 z"
             transform="matrix(1,0,0,1.00714,305,266)"
             id="path16"
             inkscape:connector-curvature="0"
             style="display:inline;fill:#61186d;fill-opacity:1" />
        </g>
      </g>
    </g>
  </g>
</svg>
