<?xml version="1.0" standalone="no"?>
<!DOCTYPE svg PUBLIC "-//W3C//DTD SVG 20010904//EN"
 "http://www.w3.org/TR/2001/REC-SVG-20010904/DTD/svg10.dtd">
<svg version="1.0" xmlns="http://www.w3.org/2000/svg"
 width="700.000000pt" height="700.000000pt" viewBox="0 0 700.000000 700.000000"
 preserveAspectRatio="xMidYMid meet">
<metadata>
Created by potrace 1.11, written by Peter Selinger 2001-2013
</metadata>
<g transform="translate(0.000000,700.000000) scale(0.100000,-0.100000)"
fill="#000000" stroke="none">
<path d="M3308 6995 c-2 -2 -34 -6 -72 -9 -79 -7 -123 -13 -233 -35 -356 -71
-747 -245 -1023 -458 -439 -337 -755 -771 -945 -1297 -33 -91 -97 -322 -108
-391 -22 -134 -27 -165 -31 -200 -3 -22 -8 -69 -12 -105 -10 -88 -12 -3787 -2
-3825 11 -41 61 -85 98 -85 32 0 34 2 171 136 71 68 80 74 118 74 53 0 57 -4
194 -206 144 -214 178 -257 208 -268 56 -19 78 5 285 312 82 121 115 152 154
145 45 -7 60 -28 215 -318 150 -281 167 -304 216 -305 38 0 60 27 134 162 37
68 81 148 98 178 16 30 47 86 68 123 22 38 39 73 39 77 0 5 16 25 35 46 30 32
39 36 67 30 42 -8 82 -54 132 -152 22 -42 78 -150 125 -239 47 -88 104 -196
126 -238 54 -105 82 -136 126 -143 32 -5 41 -2 70 28 19 19 51 67 71 108 21
41 62 120 91 175 29 55 84 158 122 230 108 206 119 220 172 231 53 11 73 -18
283 -411 87 -162 108 -193 141 -200 58 -13 76 7 185 210 21 39 48 88 61 110
12 22 26 47 30 55 34 75 120 214 141 229 30 21 67 19 94 -6 9 -8 59 -77 110
-152 153 -226 183 -265 213 -280 60 -29 76 -12 270 274 59 88 116 168 126 178
21 20 91 23 111 4 8 -6 57 -54 110 -104 78 -76 101 -93 126 -93 39 0 85 39 98
82 11 37 11 3835 0 3928 -3 30 -8 75 -11 100 -3 25 -7 56 -10 70 -3 14 -7 40
-10 58 -23 142 -86 376 -126 467 -5 11 -18 45 -29 75 -31 79 -139 293 -190
375 -77 123 -172 251 -273 369 -73 84 -244 246 -333 316 -195 152 -375 259
-591 354 -145 63 -385 139 -506 160 -15 3 -35 7 -45 10 -17 5 -39 8 -137 21
-27 4 -61 9 -75 12 -28 5 -466 13 -472 8z m-738 -2199 c95 -35 169 -93 227
-176 49 -71 66 -133 69 -240 1 -84 -2 -103 -26 -163 -49 -120 -135 -207 -254
-256 -51 -21 -77 -25 -161 -26 -89 0 -107 3 -165 29 -113 50 -210 149 -252
258 -52 137 -17 332 80 443 58 67 163 128 247 144 61 12 185 5 235 -13z m2169
0 c178 -64 293 -226 294 -416 1 -137 -50 -251 -151 -341 -88 -77 -186 -110
-314 -105 -78 3 -97 7 -161 39 -237 118 -329 398 -203 618 58 101 166 185 271
212 74 18 203 14 264 -7z m-1958 -1876 c1 -3 3 -80 4 -172 l1 -168 -35 -1
c-49 -1 -653 -1 -668 0 -16 1 -19 337 -3 343 16 5 700 3 701 -2z m1082 1 c4
-1 7 -77 7 -171 0 -155 -2 -170 -17 -171 -25 -1 -664 -1 -685 0 -16 1 -18 16
-18 170 0 104 4 171 10 173 9 3 682 2 703 -1z m1077 0 c6 -1 10 -66 10 -173
l0 -173 -358 1 -357 1 -3 168 c-1 96 1 171 7 174 7 5 659 6 701 2z"/>
</g>
</svg>
